<svg width="128" height="128" viewBox="0 0 128 128" fill="none" xmlns="http://www.w3.org/2000/svg">
  <defs>
    <linearGradient id="bgGrad" x1="16" y1="12" x2="112" y2="118" gradientUnits="userSpaceOnUse">
      <stop offset="0" stop-color="#FFB07A"/>
      <stop offset="1" stop-color="#5D8CFF"/>
    </linearGradient>
    <linearGradient id="bubbleWarm" x1="18" y1="18" x2="84" y2="86" gradientUnits="userSpaceOnUse">
      <stop offset="0" stop-color="#FFF8F1"/>
      <stop offset="1" stop-color="#FFEADB"/>
    </linearGradient>
    <linearGradient id="bubbleCool" x1="40" y1="48" x2="106" y2="112" gradientUnits="userSpaceOnUse">
      <stop offset="0" stop-color="#F4F7FF"/>
      <stop offset="1" stop-color="#E4ECFF"/>
    </linearGradient>
    <filter id="softShadow" x="6" y="8" width="116" height="114" filterUnits="userSpaceOnUse" color-interpolation-filters="sRGB">
      <feFlood flood-opacity="0" result="BackgroundImageFix"/>
      <feColorMatrix in="SourceAlpha" type="matrix" values="0 0 0 0 0 0 0 0 0 0 0 0 0 0 0 0 0 0 127 0" result="hardAlpha"/>
      <feOffset dy="4"/>
      <feGaussianBlur stdDeviation="4"/>
      <feComposite in2="hardAlpha" operator="out"/>
      <feColorMatrix type="matrix" values="0 0 0 0 0.18 0 0 0 0 0.22 0 0 0 0 0.4 0 0 0 0.28 0"/>
      <feBlend mode="normal" in2="BackgroundImageFix" result="effect1_dropShadow_1_1"/>
      <feBlend mode="normal" in="SourceGraphic" in2="effect1_dropShadow_1_1" result="shape"/>
    </filter>
  </defs>

  <rect x="8" y="8" width="112" height="112" rx="30" fill="url(#bgGrad)"/>
  <rect x="9" y="9" width="110" height="110" rx="29" stroke="white" stroke-opacity="0.22"/>

  <g filter="url(#softShadow)">
    <path d="M28 28C28 22.4772 32.4772 18 38 18H75C80.5228 18 85 22.4772 85 28V58C85 63.5228 80.5228 68 75 68H48L38 78V68C32.4772 68 28 63.5228 28 58V28Z" fill="url(#bubbleWarm)"/>
    <path d="M50 48C50 42.4772 54.4772 38 60 38H92C97.5228 38 102 42.4772 102 48V79C102 84.5228 97.5228 89 92 89H82L73 98V89H60C54.4772 89 50 84.5228 50 79V48Z" fill="url(#bubbleCool)"/>
  </g>

  <rect x="38" y="32" width="28" height="7" rx="3.5" fill="#E8855E"/>
  <rect x="38" y="44" width="36" height="7" rx="3.5" fill="#CF7452"/>
  <rect x="60" y="52" width="22" height="6.5" rx="3.25" fill="#5D8CFF"/>
  <rect x="60" y="63" width="30" height="6.5" rx="3.25" fill="#3F73F0"/>

  <circle cx="94" cy="30" r="7" fill="white" fill-opacity="0.42"/>
  <circle cx="94" cy="30" r="3.2" fill="#FFF4EA"/>
</svg>
